<?xml version="1.0" standalone="no"?>
<!DOCTYPE svg PUBLIC "-//W3C//DTD SVG 1.1//EN" "http://www.w3.org/Graphics/SVG/1.1/DTD/svg11.dtd">
<svg xmlns="http://www.w3.org/2000/svg" xmlns:xlink="http://www.w3.org/1999/xlink" width="2000" height="2000" viewBox="0 0 2000 2000" version="1.1">
<g id="surface1">
<path style=" stroke:none;fill-rule:evenodd;fill:rgb(0.392157%,0.392157%,0.392157%);fill-opacity:1;" d="M 1000 0 C 447.71875 0 0 447.71875 0 1000 C 0 1552.28125 447.71875 2000 1000 2000 C 1552.28125 2000 2000 1552.28125 2000 1000 C 2000 447.71875 1552.28125 0 1000 0 Z M 1000.199219 1839.078125 C 536.878906 1839.078125 161.320312 1463.480469 161.320312 1000.199219 C 161.320312 536.921875 536.878906 161.320312 1000.199219 161.320312 C 1463.519531 161.320312 1839.078125 536.921875 1839.078125 1000.199219 C 1839.078125 1463.480469 1463.480469 1839.078125 1000.199219 1839.078125 Z M 1000.199219 1839.078125 "/>
<path style=" stroke:none;fill-rule:evenodd;fill:rgb(0.392157%,0.392157%,0.392157%);fill-opacity:1;" d="M 900.320312 449.558594 L 1090.441406 449.558594 C 1131.679688 528.640625 1174.121094 607.558594 1217.800781 686.320312 C 1334.160156 888.078125 1449.558594 1090.199219 1564 1292.601562 C 1527.679688 1347.921875 1491.800781 1403.519531 1456.359375 1459.398438 C 1150.238281 1461.800781 844.078125 1461.800781 537.960938 1459.398438 C 497.121094 1407 461.238281 1351.398438 430.320312 1292.601562 C 586 1011.160156 742.640625 730.121094 900.28125 449.519531 Z M 900.320312 449.558594 "/>
</g>
</svg>